    <svg enableBackground="new 0 0 198.1 200" viewBox="0 0 198.1 200" xmlns="http://www.w3.org/2000/svg"><path d="m146.5 146.8c-10.8 9.2-24.6 14.9-39.8 15.7-39.5 2-72.2-30.7-70.2-70.2.8-15.1 6.5-28.9 15.7-39.8 2.1-2.4 1.9-6-.3-8.3l-25.5-25.5c-3.9-3.9-10.5-1.1-10.5 4.3v154c0 3.4 2.7 6.1 6.1 6.1h154c5.5 0 8.2-6.6 4.3-10.5l-25.5-25.5c-2.2-2.2-5.8-2.4-8.3-.3z" stroke="#fff" strokeMiterlimit="10" />
      <circle cx="103.4" cy="95.7" r="51" stroke="#fff" strokeMiterlimit="10" />
      <path d="m264.8 35.7h8.4v44.3h25.8v8.1h-34.3v-52.4z" />
      <path d="m305.8 61.9c0-3.6.7-7 2.1-10.3 1.4-3.2 3.3-6.1 5.8-8.6 2.4-2.5 5.3-4.5 8.5-5.9s6.7-2.1 10.4-2.1c3.6 0 7.1.7 10.3 2.1s6.1 3.4 8.6 5.9 4.4 5.4 5.8 8.6 2.1 6.7 2.1 10.3c0 3.7-.7 7.2-2.1 10.4s-3.3 6.1-5.9 8.5c-2.5 2.5-5.4 4.4-8.6 5.8s-6.7 2.1-10.4 2.1-7.2-.7-10.4-2.1-6-3.3-8.5-5.7c-2.4-2.4-4.4-5.3-5.8-8.5-1.2-3.2-1.9-6.7-1.9-10.5zm8.6 0c0 2.6.5 5.1 1.4 7.3.9 2.3 2.2 4.2 3.9 5.9s3.6 3 5.9 4c2.2 1 4.6 1.4 7.2 1.4 2.5 0 4.9-.5 7.1-1.4 2.2-1 4.1-2.3 5.7-4s2.9-3.7 3.8-5.9c.9-2.3 1.4-4.7 1.4-7.3s-.5-5.1-1.4-7.3c-1-2.3-2.3-4.2-3.9-6s-3.6-3.1-5.8-4c-2.2-1-4.6-1.4-7.1-1.4s-4.9.5-7.1 1.5-4.1 2.3-5.8 4-2.9 3.7-3.9 6c-.9 2.2-1.4 4.6-1.4 7.2z" />
      <path d="m409.4 84c-.7.6-1.8 1.2-3.4 2-1.5.7-3.3 1.4-5.4 1.9s-4.4.8-6.9.8c-4.1 0-7.7-.8-11-2.2-3.2-1.4-6-3.3-8.3-5.8-2.3-2.4-4-5.2-5.3-8.4-1.2-3.1-1.8-6.5-1.8-10.1 0-3.9.6-7.5 1.9-10.8 1.2-3.3 3-6.2 5.3-8.6s5-4.3 8.2-5.7c3.2-1.3 6.6-2 10.4-2 3.3 0 6.2.4 8.8 1.3s4.8 1.9 6.6 3.1l-3.3 7.8c-1.3-1-3-2-5-2.8-2-.9-4.3-1.3-6.8-1.3-2.3 0-4.5.5-6.6 1.4s-3.9 2.3-5.5 4-2.9 3.7-3.8 6-1.4 4.7-1.4 7.3c0 2.7.4 5.2 1.3 7.5.8 2.3 2 4.3 3.6 6s3.4 3 5.6 3.9 4.6 1.4 7.3 1.4 5.1-.4 7.2-1.3c2-.8 3.7-1.8 4.9-2.8z" />
      <path d="m417.4 61.9c0-3.6.7-7 2.1-10.3 1.4-3.2 3.3-6.1 5.8-8.6 2.4-2.5 5.3-4.5 8.5-5.9s6.7-2.1 10.4-2.1c3.6 0 7.1.7 10.3 2.1s6.1 3.4 8.6 5.9 4.4 5.4 5.8 8.6 2.1 6.7 2.1 10.3c0 3.7-.7 7.2-2.1 10.4s-3.3 6.1-5.9 8.5c-2.5 2.5-5.4 4.4-8.6 5.8s-6.7 2.1-10.4 2.1-7.2-.7-10.4-2.1-6-3.3-8.5-5.7c-2.4-2.4-4.4-5.3-5.8-8.5-1.2-3.2-1.9-6.7-1.9-10.5zm8.6 0c0 2.6.5 5.1 1.4 7.3.9 2.3 2.2 4.2 3.9 5.9s3.6 3 5.9 4c2.2 1 4.6 1.4 7.2 1.4 2.5 0 4.9-.5 7.1-1.4 2.2-1 4.1-2.3 5.7-4s2.9-3.7 3.8-5.9c.9-2.3 1.4-4.7 1.4-7.3s-.5-5.1-1.4-7.3c-1-2.3-2.3-4.2-3.9-6s-3.6-3.1-5.8-4c-2.2-1-4.6-1.4-7.1-1.4s-4.9.5-7.1 1.5-4.1 2.3-5.8 4-2.9 3.7-3.9 6c-.9 2.2-1.4 4.6-1.4 7.2z" />
      <path d="m521 84c-.7.6-1.8 1.2-3.4 2-1.5.7-3.3 1.4-5.4 1.9-2.1.6-4.4.8-6.9.8-4.1 0-7.7-.8-11-2.2-3.2-1.4-6-3.3-8.3-5.8-2.3-2.4-4-5.2-5.3-8.4-1.2-3.1-1.8-6.5-1.8-10.1 0-3.9.6-7.5 1.9-10.8 1.2-3.3 3-6.2 5.3-8.6s5-4.3 8.2-5.7c3.2-1.3 6.6-2 10.4-2 3.3 0 6.2.4 8.8 1.3s4.8 1.9 6.6 3.1l-3.3 7.8c-1.3-1-3-2-5-2.8-2-.9-4.3-1.3-6.8-1.3-2.3 0-4.5.5-6.6 1.4s-3.9 2.3-5.5 4-2.9 3.7-3.8 6-1.4 4.7-1.4 7.3c0 2.7.4 5.2 1.3 7.5.8 2.3 2 4.3 3.6 6s3.4 3 5.6 3.9 4.6 1.4 7.3 1.4 5.1-.4 7.2-1.3c2-.8 3.7-1.8 4.9-2.8z" />
      <path d="m529 61.9c0-3.6.7-7 2.1-10.3 1.4-3.2 3.3-6.1 5.8-8.6 2.4-2.5 5.3-4.5 8.5-5.9s6.7-2.1 10.4-2.1c3.6 0 7.1.7 10.3 2.1s6.1 3.4 8.6 5.9 4.4 5.4 5.8 8.6 2.1 6.7 2.1 10.3c0 3.7-.7 7.2-2.1 10.4s-3.3 6.1-5.9 8.5c-2.5 2.5-5.4 4.4-8.6 5.8s-6.7 2.1-10.4 2.1-7.2-.7-10.4-2.1-6-3.3-8.5-5.7c-2.4-2.4-4.4-5.3-5.8-8.5-1.2-3.2-1.9-6.7-1.9-10.5zm8.6 0c0 2.6.5 5.1 1.4 7.3.9 2.3 2.2 4.2 3.9 5.9s3.6 3 5.9 4c2.2 1 4.6 1.4 7.2 1.4 2.5 0 4.9-.5 7.1-1.4 2.2-1 4.1-2.3 5.7-4s2.9-3.7 3.8-5.9c.9-2.3 1.4-4.7 1.4-7.3s-.5-5.1-1.4-7.3c-1-2.3-2.3-4.2-3.9-6s-3.6-3.1-5.8-4c-2.2-1-4.6-1.4-7.1-1.4s-4.9.5-7.1 1.5-4.1 2.3-5.8 4-2.9 3.7-3.9 6c-.9 2.2-1.4 4.6-1.4 7.2z" />
      <path d="m264.8 122.1h8.4v52.4h-8.4z" />
      <path d="m287.6 174.5v-52.4h14.9c5.2 0 9.6.8 13.3 2.4s6.6 3.7 8.9 6.3c2.2 2.6 3.9 5.5 4.9 8.7 1.1 3.2 1.6 6.4 1.6 9.6 0 3.9-.7 7.5-2.1 10.6s-3.3 5.8-5.7 8-5.2 3.9-8.4 5.1-6.5 1.8-9.9 1.8h-17.5zm8.4-8.1h7.4c2.8 0 5.4-.4 7.7-1.2s4.3-1.9 6-3.5c1.7-1.5 3-3.4 3.9-5.6s1.4-4.8 1.4-7.7c0-3.3-.5-6.1-1.6-8.4s-2.5-4.2-4.2-5.7c-1.8-1.5-3.7-2.5-5.7-3.2-2.1-.7-4.1-1-6.1-1h-8.8z" />
      <path d="m342.4 122.1h34.8v8.1h-26.4v14h23.5v8.1h-23.5v14.3h27.4v8.1h-35.8z" />
      <path d="m384.2 174.5 23.3-54.6h.5l23.2 54.6h-9.6l-16.4-41.5 6-4-18.7 45.4h-8.3zm14.7-19.5h17.9l2.9 7.1h-23.3z" />
      <path d="m467.6 132.8c-1.9-1-3.9-1.9-6-2.6s-4.1-1-6-1c-2.6 0-4.6.6-6.1 1.7-1.5 1.2-2.2 2.7-2.2 4.8 0 1.4.5 2.7 1.5 3.8s2.4 2 4 2.8 3.4 1.5 5.2 2.3c1.6.6 3.1 1.3 4.7 2.1 1.5.8 2.9 1.8 4.2 2.9s2.3 2.6 3 4.3c.7 1.8 1.1 3.9 1.1 6.3 0 2.8-.7 5.3-2.1 7.5s-3.4 4-6 5.4-5.8 2.1-9.4 2.1c-2.2 0-4.4-.2-6.4-.7-2.1-.5-4.1-1.1-5.9-1.9-1.9-.8-3.6-1.8-5.2-3l3.7-6.5c1.2.9 2.5 1.7 4 2.4s3 1.3 4.6 1.7 3.1.6 4.5.6 2.9-.3 4.4-.8 2.7-1.3 3.7-2.4 1.4-2.6 1.4-4.5c0-1.5-.4-2.7-1.3-3.8-.9-1-2-1.9-3.3-2.7-1.4-.8-2.9-1.5-4.5-2.1s-3.2-1.3-5-2.1c-1.7-.8-3.3-1.7-4.8-2.8s-2.6-2.5-3.5-4.1-1.3-3.6-1.3-6c0-2.9.6-5.4 1.9-7.5s3.2-3.8 5.6-5.1c2.4-1.2 5.2-1.9 8.2-2 3.7 0 6.9.4 9.5 1.3s5 2 7 3.3z" />
    </svg>

